<?xml version="1.0" encoding="utf-8"?>
<!-- Generator: Adobe Illustrator 24.1.1, SVG Export Plug-In . SVG Version: 6.00 Build 0)  -->
<svg version="1.1" id="Capa_1" xmlns="http://www.w3.org/2000/svg" xmlns:xlink="http://www.w3.org/1999/xlink" x="0px" y="0px"
	 viewBox="0 0 20 20" style="enable-background:new 0 0 20 20;" xml:space="preserve">
<style type="text/css">
	.st0{fill:#FFFFFF;}
</style>
<path d="M19.34,9.98c0.01,5.14-4.13,9.35-9.38,9.36c-5.15,0.01-9.43-4.09-9.42-9.4C0.55,4.8,4.76,0.62,9.93,0.62
	C15.15,0.63,19.33,4.79,19.34,9.98z M9.94,18.09c4.56-0.05,8.15-3.58,8.14-8.12c-0.01-4.63-3.72-8.11-8.18-8.09
	c-4.42,0.02-8.15,3.53-8.1,8.2C1.86,14.74,5.64,18.05,9.94,18.09z"/>
<path d="M10.56,8.13c0,0.6,0,1.21,0,1.81c0,0.2-0.06,0.37-0.2,0.51c-1.03,1.03-2.06,2.06-3.09,3.08c-0.27,0.27-0.65,0.26-0.9,0.01
	c-0.25-0.25-0.25-0.64,0.02-0.9c0.93-0.93,1.85-1.85,2.79-2.78c0.1-0.1,0.14-0.2,0.14-0.34c-0.01-1.08,0-2.16,0-3.23
	c0-0.4,0.25-0.67,0.62-0.67c0.37,0,0.63,0.27,0.63,0.66C10.56,6.9,10.56,7.51,10.56,8.13z"/>
</svg>
