<svg id="Capa_1" data-name="Capa 1" xmlns="http://www.w3.org/2000/svg" viewBox="0 0 190.08 104.76"><defs><style>.cls-1{fill:#316029;}.cls-2{font-size:54.65px;font-family:Montserrat-SemiBold, Montserrat;font-weight:600;}.cls-2,.cls-3{fill:#9dc423;}</style></defs><path class="cls-1" d="M86.3,40.11s-6.1-.89-8.12-8.09c0,0-2.37-6.34.54-10.41a12.62,12.62,0,0,1,7.54,5.5A13.18,13.18,0,0,0,86.3,40.11Z"/><path class="cls-1" d="M88.49,40.86S84,35,87.48,28.37c0,0,2.63-6.24,7.54-7.21a13.62,13.62,0,0,1,1.43,10.41A12.18,12.18,0,0,1,88.49,40.86Z"/><text class="cls-2" transform="translate(107.96 82.55)">N</text><path class="cls-1" d="M44.28,52.25h56.39a5.83,5.83,0,0,1,5.83,5.83V69.35a5.83,5.83,0,0,1-5.83,5.83H44.28a7.2,7.2,0,0,1-7.2-7.2V59.45a7.2,7.2,0,0,1,7.2-7.2Z"/><path class="cls-3" d="M76.81,81.06a18.83,18.83,0,0,1-7.38-7,20.32,20.32,0,0,1,0-20.17,18.83,18.83,0,0,1,7.38-7.05,23.16,23.16,0,0,1,21.09,0,19,19,0,0,1,7.38,7,20.43,20.43,0,0,1,0,20.23,19,19,0,0,1-7.38,7,23.16,23.16,0,0,1-21.09,0Z"/><path class="cls-3" d="M94.24,75.65a12.49,12.49,0,0,0,4.81-4.81,14.54,14.54,0,0,0,0-13.83,12.49,12.49,0,0,0-4.81-4.81,14.64,14.64,0,0,0-13.77,0A12.42,12.42,0,0,0,75.66,57a14.54,14.54,0,0,0,0,13.83,12.42,12.42,0,0,0,4.81,4.81,14.64,14.64,0,0,0,13.77,0Z"/></svg>