<svg id="Capa_1" data-name="Capa 1" xmlns="http://www.w3.org/2000/svg" viewBox="0 0 190.08 104.76"><defs><style>.cls-1{fill:#316029;}.cls-2{font-size:54.65px;font-family:Montserrat-SemiBold, Montserrat;font-weight:600;}.cls-2,.cls-3{fill:#9dc423;}</style></defs><path class="cls-1" d="M52.25,40s-6.1-.89-8.11-8.09c0,0-2.38-6.34.53-10.41A12.67,12.67,0,0,1,52.21,27,13.21,13.21,0,0,0,52.25,40Z"/><path class="cls-1" d="M54.44,40.74s-4.48-5.88-1-12.5c0,0,2.63-6.24,7.54-7.21A13.64,13.64,0,0,1,62.4,31.45S61.71,37.85,54.44,40.74Z"/><text class="cls-2" transform="translate(107.96 82.55)">N</text><path class="cls-1" d="M44.28,52.25h56.39a5.83,5.83,0,0,1,5.83,5.83V69.35a5.83,5.83,0,0,1-5.83,5.83H44.28a7.2,7.2,0,0,1-7.2-7.2V59.45A7.2,7.2,0,0,1,44.28,52.25Z"/><path class="cls-3" d="M42.76,80.93a18.75,18.75,0,0,1-7.38-7.05,20.3,20.3,0,0,1,0-20.16,18.75,18.75,0,0,1,7.38-7,21.75,21.75,0,0,1,10.55-2.55,21.74,21.74,0,0,1,10.54,2.55,18.75,18.75,0,0,1,7.38,7,20.41,20.41,0,0,1,0,20.22,18.75,18.75,0,0,1-7.38,7,21.73,21.73,0,0,1-10.54,2.54A21.75,21.75,0,0,1,42.76,80.93Z"/><path class="cls-3" d="M60.19,75.52A12.42,12.42,0,0,0,65,70.71a14.52,14.52,0,0,0,0-13.82,12.36,12.36,0,0,0-4.81-4.81,14.57,14.57,0,0,0-13.77,0,12.42,12.42,0,0,0-4.81,4.81,14.52,14.52,0,0,0,0,13.82,12.49,12.49,0,0,0,4.81,4.81,14.64,14.64,0,0,0,13.77,0Z"/></svg>