<svg id="Capa_1" data-name="Capa 1" xmlns="http://www.w3.org/2000/svg" viewBox="0 0 190.08 104.76"><defs><style>.cls-1{fill:#316029;}.cls-2{font-size:54.65px;font-family:Montserrat-SemiBold, Montserrat;font-weight:600;}.cls-2,.cls-3{fill:#9dc423;}</style></defs><path class="cls-1" d="M70.73,40s-6.09-.89-8.11-8.09c0,0-2.37-6.34.53-10.41A12.71,12.71,0,0,1,70.7,27,13.2,13.2,0,0,0,70.73,40Z"/><path class="cls-1" d="M72.92,40.74s-4.48-5.88-1-12.5c0,0,2.62-6.24,7.53-7.21a13.64,13.64,0,0,1,1.43,10.42S80.19,37.85,72.92,40.74Z"/><text class="cls-2" transform="translate(107.96 82.55)">N</text><path class="cls-1" d="M44.28,52.25h56.39a5.83,5.83,0,0,1,5.83,5.83V69.35a5.83,5.83,0,0,1-5.83,5.83H44.28a7.2,7.2,0,0,1-7.2-7.2V59.45a7.2,7.2,0,0,1,7.2-7.2Z"/><path class="cls-3" d="M61.24,80.93a18.82,18.82,0,0,1-7.38-7.05,20.36,20.36,0,0,1,0-20.16,18.82,18.82,0,0,1,7.38-7,23.1,23.1,0,0,1,21.1,0,18.89,18.89,0,0,1,7.38,7,20.48,20.48,0,0,1,0,20.22,18.89,18.89,0,0,1-7.38,7,23.18,23.18,0,0,1-21.1,0Z"/><path class="cls-3" d="M78.68,75.52a12.49,12.49,0,0,0,4.81-4.81,14.59,14.59,0,0,0,0-13.82,12.42,12.42,0,0,0-4.81-4.81,14.59,14.59,0,0,0-13.78,0,12.42,12.42,0,0,0-4.81,4.81,14.59,14.59,0,0,0,0,13.82,12.49,12.49,0,0,0,4.81,4.81,14.66,14.66,0,0,0,13.78,0Z"/></svg>