<?xml version="1.0" encoding="utf-8"?>
<!-- Generator: Adobe Illustrator 24.1.1, SVG Export Plug-In . SVG Version: 6.00 Build 0)  -->
<svg version="1.1" id="Capa_1" xmlns="http://www.w3.org/2000/svg" xmlns:xlink="http://www.w3.org/1999/xlink" x="0px" y="0px"
	 viewBox="0 0 20 20" style="enable-background:new 0 0 20 20;" xml:space="preserve">
<style type="text/css">
	.st0{fill:#FFFFFF;}
</style>
<path class="st0" d="M0,20C0,13.33,0,6.67,0,0c6.66,0,13.33,0,20,0c0,6.66,0,13.33,0,20C13.34,20,6.67,20,0,20z M10.45,14.43
	c0.06,0,0.09,0,0.13,0.01c0.98,0.2,1.95,0.14,2.9-0.19c0.13-0.05,0.21-0.03,0.3,0.07c1.1,1.11,2.21,2.22,3.32,3.32
	c0.28,0.28,0.5,0.31,0.71,0.11c0.2-0.2,0.17-0.43-0.11-0.71C12.77,12.13,7.85,7.21,2.92,2.29C2.88,2.25,2.84,2.2,2.8,2.17
	C2.54,1.97,2.2,2.09,2.12,2.41C2.08,2.6,2.18,2.74,2.31,2.87C3.74,4.3,5.17,5.73,6.6,7.15c0.05,0.05,0.1,0.1,0.18,0.19
	C6.66,7.32,6.6,7.31,6.53,7.29C5.55,7.01,4.56,7,3.57,7.25c-0.25,0.06-0.39,0.2-0.45,0.45c-0.2,0.81-0.23,1.61-0.09,2.43
	c0.48,2.66,2.82,4.53,5.52,4.42c0.34-0.01,0.68-0.07,1.04-0.1c0,0.42,0,0.84,0,1.26c0,0.84,0,1.69,0,2.53
	c0,0.31,0.21,0.51,0.48,0.48c0.23-0.03,0.36-0.21,0.37-0.5c0-1.19,0-2.38,0-3.57C10.45,14.58,10.45,14.51,10.45,14.43z M15.45,13.04
	c0.03-0.03,0.07-0.05,0.09-0.07c1.41-1.55,1.87-3.34,1.34-5.37c-0.05-0.18-0.17-0.28-0.35-0.33c-0.82-0.21-1.64-0.28-2.47-0.1
	c-0.49,0.11-0.98,0.27-1.45,0.41c0,0,0.01-0.04,0.02-0.08c0.29-0.8,0.38-1.63,0.23-2.47c-0.3-1.64-1.18-2.88-2.62-3.72
	c-0.15-0.09-0.3-0.09-0.44,0C8.47,2.08,7.61,3.2,7.25,4.7C7.24,4.75,7.23,4.83,7.26,4.86C7.48,5.09,7.7,5.31,7.95,5.57
	C7.97,5.46,7.98,5.4,7.99,5.34C8.16,4.01,8.8,2.98,9.91,2.23c0.06-0.04,0.18-0.04,0.24,0c1.18,0.79,1.84,1.91,1.94,3.32
	c0.08,1.13-0.27,2.14-1,3.01c-0.02,0.02-0.03,0.05-0.02,0.04c0.23,0.23,0.45,0.45,0.67,0.68c0.04-0.04,0.1-0.09,0.16-0.15
	c1.16-1.03,2.51-1.41,4.04-1.14c0.16,0.03,0.23,0.1,0.25,0.25c0.16,0.86,0.1,1.69-0.2,2.51c-0.24,0.65-0.62,1.22-1.12,1.71
	C15.06,12.65,15.25,12.84,15.45,13.04z"/>
<path d="M10.45,14.43c0,0.08,0,0.15,0,0.22c0,1.19,0,2.38,0,3.57c0,0.28-0.14,0.47-0.37,0.5C9.8,18.75,9.6,18.55,9.6,18.24
	c0-0.84,0-1.69,0-2.53c0-0.42,0-0.84,0-1.26c-0.36,0.04-0.7,0.09-1.04,0.1c-2.7,0.12-5.04-1.76-5.52-4.42
	C2.89,9.31,2.92,8.5,3.12,7.69c0.06-0.25,0.19-0.39,0.45-0.45C4.56,7,5.55,7.01,6.53,7.29C6.6,7.31,6.66,7.32,6.78,7.34
	C6.7,7.26,6.65,7.2,6.6,7.15C5.17,5.73,3.74,4.3,2.31,2.87C2.18,2.74,2.08,2.6,2.12,2.41C2.2,2.09,2.54,1.97,2.8,2.17
	C2.84,2.2,2.88,2.25,2.92,2.29c4.92,4.92,9.84,9.84,14.77,14.76c0.28,0.28,0.31,0.51,0.11,0.71c-0.2,0.2-0.43,0.17-0.71-0.11
	c-1.11-1.11-2.22-2.21-3.32-3.32c-0.09-0.1-0.17-0.12-0.3-0.07c-0.95,0.33-1.91,0.39-2.9,0.19C10.54,14.43,10.5,14.43,10.45,14.43z
	 M9.49,13.58c0.04-0.35,0.09-0.7,0.1-1.05c0.04-1.19-0.34-2.24-1.14-3.11C7.26,8.13,5.77,7.68,4.05,8c-0.1,0.02-0.15,0.06-0.17,0.17
	c-0.14,0.65-0.15,1.3,0,1.95C4.48,12.68,6.89,14.18,9.49,13.58z M12.91,13.54c-0.76-0.76-1.52-1.52-2.29-2.29
	c-0.2,0.73-0.23,1.48-0.06,2.24c0.01,0.05,0.07,0.1,0.12,0.11c0.26,0.04,0.51,0.09,0.77,0.1C11.95,13.73,12.45,13.67,12.91,13.54z"
	/>
<path d="M15.45,13.04c-0.21-0.2-0.39-0.39-0.59-0.58c0.5-0.49,0.87-1.06,1.12-1.71c0.3-0.82,0.36-1.65,0.2-2.51
	c-0.03-0.15-0.09-0.22-0.25-0.25c-1.53-0.26-2.88,0.11-4.04,1.14c-0.06,0.05-0.11,0.11-0.16,0.15c-0.22-0.22-0.44-0.44-0.67-0.68
	c-0.01,0.01,0-0.01,0.02-0.04c0.73-0.87,1.08-1.88,1-3.01c-0.1-1.41-0.76-2.53-1.94-3.32c-0.06-0.04-0.18-0.04-0.24,0
	C8.8,2.98,8.16,4.01,7.99,5.34C7.98,5.4,7.97,5.46,7.95,5.57C7.7,5.31,7.48,5.09,7.26,4.86C7.23,4.83,7.24,4.75,7.25,4.7
	C7.61,3.2,8.47,2.08,9.8,1.3c0.15-0.09,0.3-0.08,0.44,0c1.44,0.84,2.32,2.08,2.62,3.72c0.15,0.84,0.06,1.67-0.23,2.47
	c-0.01,0.03-0.02,0.07-0.02,0.08c0.48-0.14,0.96-0.3,1.45-0.41c0.83-0.18,1.65-0.11,2.47,0.1c0.18,0.05,0.3,0.15,0.35,0.33
	c0.52,2.03,0.07,3.82-1.34,5.37C15.52,12.99,15.49,13.01,15.45,13.04z"/>
<path class="st0" d="M9.49,13.58c-2.6,0.6-5.01-0.9-5.61-3.47c-0.15-0.65-0.14-1.3,0-1.95C3.91,8.06,3.96,8.01,4.05,8
	c1.72-0.31,3.21,0.14,4.39,1.43c0.8,0.87,1.18,1.93,1.14,3.11C9.58,12.89,9.52,13.23,9.49,13.58z"/>
<path class="st0" d="M12.91,13.54c-0.46,0.13-0.95,0.19-1.46,0.17c-0.26-0.01-0.51-0.06-0.77-0.1c-0.05-0.01-0.11-0.07-0.12-0.11
	c-0.17-0.76-0.14-1.51,0.06-2.24C11.38,12.02,12.15,12.78,12.91,13.54z"/>
</svg>
