<?xml version="1.0" encoding="utf-8"?>
<!-- Generator: Adobe Illustrator 24.1.1, SVG Export Plug-In . SVG Version: 6.00 Build 0)  -->
<svg version="1.1" id="Capa_1" xmlns="http://www.w3.org/2000/svg" xmlns:xlink="http://www.w3.org/1999/xlink" x="0px" y="0px"
	 viewBox="0 0 20 20" style="enable-background:new 0 0 20 20;" xml:space="preserve">
<style type="text/css">
	.st0{fill:#FFFFFF;}
</style>
<path d="M10.53,0c0.2,0.04,0.41,0.07,0.61,0.12c2.01,0.51,3.24,1.8,3.62,3.81c0.36,1.92-0.17,3.63-1.6,4.98
	c-1.08,1.03-2.4,1.45-3.89,1.19C7.6,9.81,6.45,8.82,5.73,7.32C5.1,6.01,4.99,4.64,5.46,3.25c0.57-1.67,1.73-2.71,3.45-3.13
	C9.11,0.07,9.31,0.04,9.51,0C9.85,0,10.19,0,10.53,0z M6.65,4.81c0,1.11,0.31,2,0.96,2.76c1.05,1.25,2.83,1.5,4.17,0.58
	c1.23-0.85,1.87-2.56,1.5-4.09c-0.64-2.66-3.63-3.25-5.36-1.9C7.03,2.86,6.67,3.81,6.65,4.81z"/>
<path d="M10.01,19.96c-2.82,0-5.64-0.01-8.46,0.01c-0.47,0-0.85-0.32-0.84-0.85c0.04-1.29,0.23-2.54,0.8-3.72
	c0.72-1.48,1.87-2.52,3.35-3.2c1.07-0.49,2.19-0.74,3.35-0.86c0.94-0.1,1.88-0.13,2.82-0.07c1.69,0.11,3.33,0.42,4.82,1.28
	c1.75,1.02,2.82,2.54,3.23,4.51c0.14,0.67,0.17,1.36,0.23,2.04c0.05,0.53-0.34,0.87-0.84,0.86C15.66,19.95,12.83,19.96,10.01,19.96z
	 M17.81,18.49c0-0.07,0.01-0.13,0-0.17c-0.11-0.54-0.19-1.09-0.35-1.61c-0.41-1.3-1.24-2.27-2.43-2.94
	c-1.03-0.58-2.16-0.84-3.31-0.97c-1.22-0.13-2.44-0.13-3.65,0.03C6.99,12.97,5.95,13.23,5,13.77c-0.81,0.46-1.48,1.07-1.96,1.88
	C2.66,16.3,2.43,17,2.3,17.74c-0.04,0.24-0.06,0.49-0.09,0.75C7.43,18.49,12.61,18.49,17.81,18.49z"/>
<path class="st0" d="M6.65,4.81c0.02-0.99,0.38-1.95,1.27-2.65c1.73-1.35,4.73-0.76,5.36,1.9c0.37,1.53-0.27,3.24-1.5,4.09
	c-1.35,0.92-3.12,0.68-4.17-0.58C6.97,6.8,6.66,5.92,6.65,4.81z"/>
<path class="st0" d="M17.81,18.49c-5.2,0-10.38,0-15.6,0c0.03-0.26,0.05-0.5,0.09-0.75C2.43,17,2.66,16.3,3.05,15.65
	c0.48-0.81,1.14-1.42,1.96-1.88c0.95-0.53,1.99-0.8,3.06-0.94c1.22-0.16,2.44-0.17,3.65-0.03c1.16,0.13,2.29,0.39,3.31,0.97
	c1.19,0.67,2.02,1.63,2.43,2.94c0.16,0.52,0.24,1.07,0.35,1.61C17.82,18.36,17.81,18.42,17.81,18.49z"/>
</svg>
