<?xml version="1.0" encoding="utf-8"?>
<!-- Generator: Adobe Illustrator 24.1.1, SVG Export Plug-In . SVG Version: 6.00 Build 0)  -->
<svg version="1.1" id="Capa_1" xmlns="http://www.w3.org/2000/svg" xmlns:xlink="http://www.w3.org/1999/xlink" x="0px" y="0px"
	 viewBox="0 0 20 20" style="enable-background:new 0 0 20 20;" xml:space="preserve">
<style type="text/css">
	.st0{fill:#FFFFFF;}
</style>
<g>
	<path d="M20,9.46c-0.04,0.29-0.07,0.58-0.12,0.86c-0.18,1.19-0.54,2.31-1.26,3.3c-0.71,0.99-1.68,1.62-2.81,2.02
		c-1.07,0.38-2.19,0.52-3.32,0.52c-0.84,0-1.69,0.03-2.53-0.02c-2.13-0.12-4.16-0.59-5.98-1.77c-1.11-0.72-1.95-1.68-2.56-2.84
		c-0.71-1.34-1.09-2.79-1.27-4.29C0.04,6.31,0,5.36,0.07,4.42C0.1,4.02,0.33,3.8,0.72,3.78c1.94-0.1,3.84,0.09,5.68,0.74
		c1.39,0.49,2.64,1.23,3.62,2.36c0.83,0.95,1.38,2.05,1.76,3.23c0.08,0.26,0.16,0.53,0.24,0.82c0.05-0.06,0.1-0.1,0.13-0.15
		c0.8-1.59,2.12-2.5,3.79-2.98c1.09-0.31,2.2-0.4,3.33-0.36C19.66,7.46,19.9,7.65,20,8.02C20,8.5,20,8.98,20,9.46z M10.34,14.94
		c-0.08-0.08-0.12-0.13-0.16-0.17c-1.42-1.42-2.83-2.84-4.25-4.25c-0.06-0.06-0.12-0.12-0.17-0.19c-0.15-0.2-0.17-0.42-0.06-0.64
		c0.11-0.22,0.3-0.34,0.55-0.34c0.21,0,0.36,0.11,0.5,0.26c1.42,1.43,2.85,2.85,4.28,4.28c0.05,0.05,0.1,0.09,0.19,0.18
		c-0.03-0.38-0.06-0.71-0.09-1.04c-0.09-0.99-0.3-1.95-0.63-2.89C9.74,7.95,8.26,6.48,6.07,5.7C4.71,5.21,3.3,5.03,1.86,4.98
		c-0.19-0.01-0.39,0-0.63,0C1.28,5.64,1.31,6.27,1.36,6.9c0.1,1.24,0.39,2.44,0.9,3.57c0.66,1.47,1.7,2.59,3.15,3.31
		C6.95,14.57,8.6,14.85,10.34,14.94z M12.55,14.01c0.08-0.07,0.13-0.12,0.18-0.17c0.79-0.79,1.58-1.58,2.37-2.37
		c0.06-0.06,0.12-0.12,0.19-0.17c0.36-0.26,0.84-0.08,0.95,0.35c0.07,0.27-0.05,0.46-0.23,0.64c-0.81,0.81-1.61,1.61-2.42,2.42
		c-0.04,0.04-0.09,0.09-0.15,0.16c0.05,0,0.07,0,0.1,0c0.79-0.07,1.56-0.24,2.29-0.56c0.95-0.41,1.68-1.05,2.16-1.98
		c0.42-0.82,0.63-1.69,0.73-2.6c0.04-0.35,0.05-0.71,0.07-1.07c-0.08,0-0.12-0.01-0.16-0.01c-0.87,0.01-1.71,0.13-2.54,0.38
		c-1.63,0.49-2.68,1.55-3.19,3.17C12.71,12.79,12.59,13.37,12.55,14.01z"/>
	<path class="st0" d="M10.34,14.94c-1.74-0.09-3.4-0.38-4.94-1.15c-1.45-0.73-2.48-1.84-3.15-3.31c-0.51-1.14-0.8-2.33-0.9-3.57
		C1.31,6.27,1.28,5.64,1.24,4.98c0.24,0,0.43-0.01,0.63,0C3.3,5.03,4.71,5.21,6.07,5.7c2.19,0.78,3.67,2.25,4.43,4.44
		c0.33,0.94,0.53,1.9,0.63,2.89c0.03,0.33,0.06,0.65,0.09,1.04c-0.09-0.09-0.14-0.13-0.19-0.18c-1.43-1.43-2.85-2.85-4.28-4.28
		c-0.14-0.14-0.3-0.26-0.5-0.26c-0.25,0-0.44,0.11-0.55,0.34c-0.11,0.22-0.09,0.44,0.06,0.64c0.05,0.07,0.11,0.13,0.17,0.19
		c1.42,1.42,2.83,2.84,4.25,4.25C10.23,14.81,10.27,14.86,10.34,14.94z"/>
	<path class="st0" d="M12.55,14.01c0.04-0.64,0.16-1.22,0.34-1.79c0.51-1.61,1.55-2.68,3.19-3.17c0.83-0.25,1.68-0.37,2.54-0.38
		c0.04,0,0.09,0.01,0.16,0.01c-0.02,0.36-0.03,0.72-0.07,1.07c-0.1,0.91-0.31,1.78-0.73,2.6c-0.48,0.93-1.22,1.57-2.16,1.98
		c-0.73,0.32-1.5,0.49-2.29,0.56c-0.02,0-0.05,0-0.1,0c0.06-0.07,0.1-0.11,0.15-0.16c0.81-0.81,1.61-1.61,2.42-2.42
		c0.18-0.18,0.3-0.37,0.23-0.64c-0.11-0.43-0.59-0.61-0.95-0.35c-0.07,0.05-0.13,0.11-0.19,0.17c-0.79,0.79-1.58,1.58-2.37,2.37
		C12.68,13.89,12.63,13.94,12.55,14.01z"/>
</g>
</svg>
